<mxfile host="app.diagrams.net" modified="2023-08-20T14:26:48.551Z" agent="Mozilla/5.0 (Windows NT 10.0; Win64; x64; rv:109.0) Gecko/20100101 Firefox/116.0" etag="CtDArwnyXt-NiF6ZmtcG" version="21.6.8" type="device">
  <diagram name="Page-1" id="5f0bae14-7c28-e335-631c-24af17079c00">
    <mxGraphModel dx="1195" dy="628" grid="1" gridSize="10" guides="1" tooltips="1" connect="1" arrows="1" fold="1" page="1" pageScale="1" pageWidth="1100" pageHeight="850" background="none" math="0" shadow="0">
      <root>
        <mxCell id="0" />
        <mxCell id="1" parent="0" />
        <mxCell id="39150e848f15840c-1" value="FM.Domain" style="verticalAlign=top;align=left;spacingTop=8;spacingLeft=2;spacingRight=12;shape=cube;size=10;direction=south;fontStyle=4;html=1;rounded=0;shadow=0;comic=0;labelBackgroundColor=none;strokeWidth=1;fontFamily=Verdana;fontSize=12" parent="1" vertex="1">
          <mxGeometry x="30" y="20" width="550" height="740" as="geometry" />
        </mxCell>
        <mxCell id="Osu4Qola3e7xnFOyFixS-4" value="" style="edgeStyle=orthogonalEdgeStyle;rounded=0;orthogonalLoop=1;jettySize=auto;html=1;shape=flexArrow;entryX=0.149;entryY=-0.003;entryDx=0;entryDy=0;entryPerimeter=0;" edge="1" parent="1" source="39150e848f15840c-2" target="39150e848f15840c-1">
          <mxGeometry relative="1" as="geometry">
            <mxPoint x="370" y="130" as="targetPoint" />
          </mxGeometry>
        </mxCell>
        <mxCell id="39150e848f15840c-2" value="FM.Repository" style="verticalAlign=top;align=left;spacingTop=8;spacingLeft=2;spacingRight=12;shape=cube;size=10;direction=south;fontStyle=4;html=1;rounded=0;shadow=0;comic=0;labelBackgroundColor=none;strokeWidth=1;fontFamily=Verdana;fontSize=12" parent="1" vertex="1">
          <mxGeometry x="730" y="20" width="330" height="220" as="geometry" />
        </mxCell>
        <mxCell id="Osu4Qola3e7xnFOyFixS-3" style="edgeStyle=orthogonalEdgeStyle;rounded=0;orthogonalLoop=1;jettySize=auto;html=1;exitX=-0.005;exitY=0.572;exitDx=0;exitDy=0;exitPerimeter=0;entryX=1.012;entryY=0.67;entryDx=0;entryDy=0;entryPerimeter=0;shape=flexArrow;" edge="1" parent="1" source="39150e848f15840c-3" target="39150e848f15840c-2">
          <mxGeometry relative="1" as="geometry" />
        </mxCell>
        <mxCell id="Osu4Qola3e7xnFOyFixS-5" value="" style="edgeStyle=orthogonalEdgeStyle;rounded=0;orthogonalLoop=1;jettySize=auto;html=1;shape=flexArrow;" edge="1" parent="1" source="39150e848f15840c-3" target="39150e848f15840c-1">
          <mxGeometry relative="1" as="geometry" />
        </mxCell>
        <mxCell id="39150e848f15840c-3" value="FM.Service" style="verticalAlign=top;align=left;spacingTop=8;spacingLeft=2;spacingRight=12;shape=cube;size=10;direction=south;fontStyle=4;html=1;rounded=0;shadow=0;comic=0;labelBackgroundColor=none;strokeWidth=1;fontFamily=Verdana;fontSize=12" parent="1" vertex="1">
          <mxGeometry x="730" y="280" width="240" height="220" as="geometry" />
        </mxCell>
        <mxCell id="Osu4Qola3e7xnFOyFixS-2" style="edgeStyle=orthogonalEdgeStyle;rounded=0;orthogonalLoop=1;jettySize=auto;html=1;exitX=-0.005;exitY=0.627;exitDx=0;exitDy=0;exitPerimeter=0;entryX=1.009;entryY=0.494;entryDx=0;entryDy=0;entryPerimeter=0;shape=flexArrow;" edge="1" parent="1" source="Osu4Qola3e7xnFOyFixS-1" target="39150e848f15840c-3">
          <mxGeometry relative="1" as="geometry" />
        </mxCell>
        <mxCell id="Osu4Qola3e7xnFOyFixS-6" value="" style="edgeStyle=orthogonalEdgeStyle;rounded=0;orthogonalLoop=1;jettySize=auto;html=1;shape=flexArrow;entryX=0.851;entryY=-0.005;entryDx=0;entryDy=0;entryPerimeter=0;" edge="1" parent="1" source="Osu4Qola3e7xnFOyFixS-1" target="39150e848f15840c-1">
          <mxGeometry relative="1" as="geometry" />
        </mxCell>
        <mxCell id="Osu4Qola3e7xnFOyFixS-24" style="edgeStyle=orthogonalEdgeStyle;rounded=0;orthogonalLoop=1;jettySize=auto;html=1;entryX=1.005;entryY=0.134;entryDx=0;entryDy=0;entryPerimeter=0;shape=flexArrow;exitX=-0.01;exitY=0.134;exitDx=0;exitDy=0;exitPerimeter=0;dashed=1;" edge="1" parent="1" source="Osu4Qola3e7xnFOyFixS-1" target="39150e848f15840c-2">
          <mxGeometry relative="1" as="geometry" />
        </mxCell>
        <mxCell id="Osu4Qola3e7xnFOyFixS-1" value="FM.Web" style="verticalAlign=top;align=left;spacingTop=8;spacingLeft=2;spacingRight=12;shape=cube;size=10;direction=south;fontStyle=4;html=1;rounded=0;shadow=0;comic=0;labelBackgroundColor=none;strokeWidth=1;fontFamily=Verdana;fontSize=12" vertex="1" parent="1">
          <mxGeometry x="730" y="540" width="330" height="220" as="geometry" />
        </mxCell>
        <mxCell id="Osu4Qola3e7xnFOyFixS-9" value="Abstractions" style="shape=folder;fontStyle=1;tabWidth=110;tabHeight=30;tabPosition=left;html=1;boundedLbl=1;labelInHeader=1;container=1;collapsible=0;whiteSpace=wrap;" vertex="1" parent="1">
          <mxGeometry x="70" y="60" width="400" height="340" as="geometry" />
        </mxCell>
        <mxCell id="Osu4Qola3e7xnFOyFixS-10" value="" style="html=1;strokeColor=none;resizeWidth=1;resizeHeight=1;fillColor=none;part=1;connectable=0;allowArrows=0;deletable=0;whiteSpace=wrap;" vertex="1" parent="Osu4Qola3e7xnFOyFixS-9">
          <mxGeometry width="260.8695652173913" height="196" relative="1" as="geometry">
            <mxPoint y="30" as="offset" />
          </mxGeometry>
        </mxCell>
        <mxCell id="Osu4Qola3e7xnFOyFixS-27" value="Repository" style="shape=folder;fontStyle=1;tabWidth=110;tabHeight=30;tabPosition=left;html=1;boundedLbl=1;labelInHeader=1;container=1;collapsible=0;whiteSpace=wrap;" vertex="1" parent="Osu4Qola3e7xnFOyFixS-9">
          <mxGeometry x="11.59" y="40" width="368.41" height="90" as="geometry" />
        </mxCell>
        <mxCell id="Osu4Qola3e7xnFOyFixS-28" value="" style="html=1;strokeColor=none;resizeWidth=1;resizeHeight=1;fillColor=none;part=1;connectable=0;allowArrows=0;deletable=0;whiteSpace=wrap;" vertex="1" parent="Osu4Qola3e7xnFOyFixS-27">
          <mxGeometry width="368.41" height="50" relative="1" as="geometry">
            <mxPoint y="30" as="offset" />
          </mxGeometry>
        </mxCell>
        <mxCell id="Osu4Qola3e7xnFOyFixS-32" value="Client" style="whiteSpace=wrap;html=1;shape=mxgraph.basic.document" vertex="1" parent="Osu4Qola3e7xnFOyFixS-27">
          <mxGeometry x="16.37377777777778" y="45.00375" width="81.86888888888889" height="32.142857142857146" as="geometry" />
        </mxCell>
        <mxCell id="Osu4Qola3e7xnFOyFixS-34" value="Intervention" style="whiteSpace=wrap;html=1;shape=mxgraph.basic.document" vertex="1" parent="Osu4Qola3e7xnFOyFixS-27">
          <mxGeometry x="106.42955555555555" y="45.00375" width="81.86888888888889" height="32.142857142857146" as="geometry" />
        </mxCell>
        <mxCell id="Osu4Qola3e7xnFOyFixS-35" value="Invoice" style="whiteSpace=wrap;html=1;shape=mxgraph.basic.document" vertex="1" parent="Osu4Qola3e7xnFOyFixS-27">
          <mxGeometry x="196.48533333333333" y="45.00375" width="81.86888888888889" height="32.142857142857146" as="geometry" />
        </mxCell>
        <mxCell id="Osu4Qola3e7xnFOyFixS-36" value="Service" style="shape=folder;fontStyle=1;tabWidth=110;tabHeight=30;tabPosition=left;html=1;boundedLbl=1;labelInHeader=1;container=1;collapsible=0;whiteSpace=wrap;" vertex="1" parent="Osu4Qola3e7xnFOyFixS-9">
          <mxGeometry x="11.59" y="140" width="368.41" height="90" as="geometry" />
        </mxCell>
        <mxCell id="Osu4Qola3e7xnFOyFixS-37" value="" style="html=1;strokeColor=none;resizeWidth=1;resizeHeight=1;fillColor=none;part=1;connectable=0;allowArrows=0;deletable=0;whiteSpace=wrap;" vertex="1" parent="Osu4Qola3e7xnFOyFixS-36">
          <mxGeometry width="368.41" height="50" relative="1" as="geometry">
            <mxPoint y="30" as="offset" />
          </mxGeometry>
        </mxCell>
        <mxCell id="Osu4Qola3e7xnFOyFixS-38" value="Client" style="whiteSpace=wrap;html=1;shape=mxgraph.basic.document" vertex="1" parent="Osu4Qola3e7xnFOyFixS-36">
          <mxGeometry x="16.37377777777778" y="45.00375" width="81.86888888888889" height="32.142857142857146" as="geometry" />
        </mxCell>
        <mxCell id="Osu4Qola3e7xnFOyFixS-39" value="Intervention" style="whiteSpace=wrap;html=1;shape=mxgraph.basic.document" vertex="1" parent="Osu4Qola3e7xnFOyFixS-36">
          <mxGeometry x="106.42955555555555" y="45.00375" width="81.86888888888889" height="32.142857142857146" as="geometry" />
        </mxCell>
        <mxCell id="Osu4Qola3e7xnFOyFixS-40" value="Invoice" style="whiteSpace=wrap;html=1;shape=mxgraph.basic.document" vertex="1" parent="Osu4Qola3e7xnFOyFixS-36">
          <mxGeometry x="196.48533333333333" y="45.00375" width="81.86888888888889" height="32.142857142857146" as="geometry" />
        </mxCell>
        <mxCell id="Osu4Qola3e7xnFOyFixS-41" value="Web" style="shape=folder;fontStyle=1;tabWidth=110;tabHeight=30;tabPosition=left;html=1;boundedLbl=1;labelInHeader=1;container=1;collapsible=0;whiteSpace=wrap;" vertex="1" parent="Osu4Qola3e7xnFOyFixS-9">
          <mxGeometry x="11.59" y="240" width="368.41" height="90" as="geometry" />
        </mxCell>
        <mxCell id="Osu4Qola3e7xnFOyFixS-42" value="" style="html=1;strokeColor=none;resizeWidth=1;resizeHeight=1;fillColor=none;part=1;connectable=0;allowArrows=0;deletable=0;whiteSpace=wrap;" vertex="1" parent="Osu4Qola3e7xnFOyFixS-41">
          <mxGeometry width="368.41" height="50" relative="1" as="geometry">
            <mxPoint y="30" as="offset" />
          </mxGeometry>
        </mxCell>
        <mxCell id="Osu4Qola3e7xnFOyFixS-43" value="Client" style="whiteSpace=wrap;html=1;shape=mxgraph.basic.document" vertex="1" parent="Osu4Qola3e7xnFOyFixS-41">
          <mxGeometry x="16.37377777777778" y="45.00375" width="81.86888888888889" height="32.142857142857146" as="geometry" />
        </mxCell>
        <mxCell id="Osu4Qola3e7xnFOyFixS-44" value="Intervention" style="whiteSpace=wrap;html=1;shape=mxgraph.basic.document" vertex="1" parent="Osu4Qola3e7xnFOyFixS-41">
          <mxGeometry x="106.42955555555555" y="45.00375" width="81.86888888888889" height="32.142857142857146" as="geometry" />
        </mxCell>
        <mxCell id="Osu4Qola3e7xnFOyFixS-45" value="Invoice" style="whiteSpace=wrap;html=1;shape=mxgraph.basic.document" vertex="1" parent="Osu4Qola3e7xnFOyFixS-41">
          <mxGeometry x="196.48533333333333" y="45.00375" width="81.86888888888889" height="32.142857142857146" as="geometry" />
        </mxCell>
        <mxCell id="Osu4Qola3e7xnFOyFixS-25" value="View" style="shape=folder;fontStyle=1;spacingTop=10;tabWidth=40;tabHeight=14;tabPosition=left;html=1;whiteSpace=wrap;" vertex="1" parent="1">
          <mxGeometry x="740" y="583.33" width="280" height="60" as="geometry" />
        </mxCell>
        <mxCell id="Osu4Qola3e7xnFOyFixS-26" value="Controller" style="shape=folder;fontStyle=1;spacingTop=10;tabWidth=40;tabHeight=14;tabPosition=left;html=1;whiteSpace=wrap;" vertex="1" parent="1">
          <mxGeometry x="740" y="663.33" width="280" height="53.33" as="geometry" />
        </mxCell>
        <mxCell id="Osu4Qola3e7xnFOyFixS-76" value="Models" style="shape=folder;fontStyle=1;tabWidth=110;tabHeight=30;tabPosition=left;html=1;boundedLbl=1;labelInHeader=1;container=1;collapsible=0;whiteSpace=wrap;" vertex="1" parent="1">
          <mxGeometry x="70" y="410" width="400" height="340" as="geometry" />
        </mxCell>
        <mxCell id="Osu4Qola3e7xnFOyFixS-77" value="" style="html=1;strokeColor=none;resizeWidth=1;resizeHeight=1;fillColor=none;part=1;connectable=0;allowArrows=0;deletable=0;whiteSpace=wrap;" vertex="1" parent="Osu4Qola3e7xnFOyFixS-76">
          <mxGeometry width="260.8695652173913" height="196" relative="1" as="geometry">
            <mxPoint y="30" as="offset" />
          </mxGeometry>
        </mxCell>
        <mxCell id="Osu4Qola3e7xnFOyFixS-78" value="Repository" style="shape=folder;fontStyle=1;tabWidth=110;tabHeight=30;tabPosition=left;html=1;boundedLbl=1;labelInHeader=1;container=1;collapsible=0;whiteSpace=wrap;" vertex="1" parent="Osu4Qola3e7xnFOyFixS-76">
          <mxGeometry x="11.59" y="40" width="368.41" height="90" as="geometry" />
        </mxCell>
        <mxCell id="Osu4Qola3e7xnFOyFixS-79" value="" style="html=1;strokeColor=none;resizeWidth=1;resizeHeight=1;fillColor=none;part=1;connectable=0;allowArrows=0;deletable=0;whiteSpace=wrap;" vertex="1" parent="Osu4Qola3e7xnFOyFixS-78">
          <mxGeometry width="368.41" height="50" relative="1" as="geometry">
            <mxPoint y="30" as="offset" />
          </mxGeometry>
        </mxCell>
        <mxCell id="Osu4Qola3e7xnFOyFixS-80" value="Client" style="whiteSpace=wrap;html=1;shape=mxgraph.basic.document" vertex="1" parent="Osu4Qola3e7xnFOyFixS-78">
          <mxGeometry x="16.37377777777778" y="45.00375" width="81.86888888888889" height="32.142857142857146" as="geometry" />
        </mxCell>
        <mxCell id="Osu4Qola3e7xnFOyFixS-81" value="Intervention" style="whiteSpace=wrap;html=1;shape=mxgraph.basic.document" vertex="1" parent="Osu4Qola3e7xnFOyFixS-78">
          <mxGeometry x="106.42955555555555" y="45.00375" width="81.86888888888889" height="32.142857142857146" as="geometry" />
        </mxCell>
        <mxCell id="Osu4Qola3e7xnFOyFixS-82" value="Invoice" style="whiteSpace=wrap;html=1;shape=mxgraph.basic.document" vertex="1" parent="Osu4Qola3e7xnFOyFixS-78">
          <mxGeometry x="196.48533333333333" y="45.00375" width="81.86888888888889" height="32.142857142857146" as="geometry" />
        </mxCell>
        <mxCell id="Osu4Qola3e7xnFOyFixS-83" value="Service" style="shape=folder;fontStyle=1;tabWidth=110;tabHeight=30;tabPosition=left;html=1;boundedLbl=1;labelInHeader=1;container=1;collapsible=0;whiteSpace=wrap;" vertex="1" parent="Osu4Qola3e7xnFOyFixS-76">
          <mxGeometry x="11.59" y="140" width="368.41" height="90" as="geometry" />
        </mxCell>
        <mxCell id="Osu4Qola3e7xnFOyFixS-84" value="" style="html=1;strokeColor=none;resizeWidth=1;resizeHeight=1;fillColor=none;part=1;connectable=0;allowArrows=0;deletable=0;whiteSpace=wrap;" vertex="1" parent="Osu4Qola3e7xnFOyFixS-83">
          <mxGeometry width="368.41" height="50" relative="1" as="geometry">
            <mxPoint y="30" as="offset" />
          </mxGeometry>
        </mxCell>
        <mxCell id="Osu4Qola3e7xnFOyFixS-85" value="Client" style="whiteSpace=wrap;html=1;shape=mxgraph.basic.document" vertex="1" parent="Osu4Qola3e7xnFOyFixS-83">
          <mxGeometry x="16.37377777777778" y="45.00375" width="81.86888888888889" height="32.142857142857146" as="geometry" />
        </mxCell>
        <mxCell id="Osu4Qola3e7xnFOyFixS-86" value="Intervention" style="whiteSpace=wrap;html=1;shape=mxgraph.basic.document" vertex="1" parent="Osu4Qola3e7xnFOyFixS-83">
          <mxGeometry x="106.42955555555555" y="45.00375" width="81.86888888888889" height="32.142857142857146" as="geometry" />
        </mxCell>
        <mxCell id="Osu4Qola3e7xnFOyFixS-87" value="Invoice" style="whiteSpace=wrap;html=1;shape=mxgraph.basic.document" vertex="1" parent="Osu4Qola3e7xnFOyFixS-83">
          <mxGeometry x="196.48533333333333" y="45.00375" width="81.86888888888889" height="32.142857142857146" as="geometry" />
        </mxCell>
        <mxCell id="Osu4Qola3e7xnFOyFixS-88" value="Web" style="shape=folder;fontStyle=1;tabWidth=110;tabHeight=30;tabPosition=left;html=1;boundedLbl=1;labelInHeader=1;container=1;collapsible=0;whiteSpace=wrap;" vertex="1" parent="Osu4Qola3e7xnFOyFixS-76">
          <mxGeometry x="11.59" y="240" width="368.41" height="90" as="geometry" />
        </mxCell>
        <mxCell id="Osu4Qola3e7xnFOyFixS-89" value="" style="html=1;strokeColor=none;resizeWidth=1;resizeHeight=1;fillColor=none;part=1;connectable=0;allowArrows=0;deletable=0;whiteSpace=wrap;" vertex="1" parent="Osu4Qola3e7xnFOyFixS-88">
          <mxGeometry width="368.41" height="50" relative="1" as="geometry">
            <mxPoint y="30" as="offset" />
          </mxGeometry>
        </mxCell>
        <mxCell id="Osu4Qola3e7xnFOyFixS-90" value="Client" style="whiteSpace=wrap;html=1;shape=mxgraph.basic.document" vertex="1" parent="Osu4Qola3e7xnFOyFixS-88">
          <mxGeometry x="16.37377777777778" y="45.00375" width="81.86888888888889" height="32.142857142857146" as="geometry" />
        </mxCell>
        <mxCell id="Osu4Qola3e7xnFOyFixS-91" value="Intervention" style="whiteSpace=wrap;html=1;shape=mxgraph.basic.document" vertex="1" parent="Osu4Qola3e7xnFOyFixS-88">
          <mxGeometry x="106.42955555555555" y="45.00375" width="81.86888888888889" height="32.142857142857146" as="geometry" />
        </mxCell>
        <mxCell id="Osu4Qola3e7xnFOyFixS-92" value="Invoice" style="whiteSpace=wrap;html=1;shape=mxgraph.basic.document" vertex="1" parent="Osu4Qola3e7xnFOyFixS-88">
          <mxGeometry x="196.48533333333333" y="45.00375" width="81.86888888888889" height="32.142857142857146" as="geometry" />
        </mxCell>
      </root>
    </mxGraphModel>
  </diagram>
</mxfile>
